<svg width="24" height="24" viewBox="0 0 24 24" fill="none" xmlns="http://www.w3.org/2000/svg">
<path d="M23.1562 7.73438C22.9219 7.54688 17.9062 3.51562 16.8281 2.625C15.7969 1.82812 14.0156 0 12 0C9.9375 0 8.20312 1.78125 7.125 2.625C6 3.5625 0.984375 7.59375 0.796875 7.73438C0.28125 8.15625 0 8.76562 0 9.46875V21.75C0 23.0156 0.984375 24 2.25 24H21.75C22.9688 24 24 23.0156 24 21.75V9.46875C24 8.76562 23.6719 8.15625 23.1562 7.73438ZM21.75 21.4688C21.75 21.6562 21.6094 21.75 21.4688 21.75H2.53125C2.34375 21.75 2.25 21.6562 2.25 21.4688V9.60938C2.25 9.51562 2.25 9.42188 2.34375 9.375C3.09375 8.76562 7.45312 5.29688 8.53125 4.40625C9.375 3.70312 10.875 2.25 12 2.25C13.0781 2.25 14.5781 3.75 15.4219 4.40625C16.5 5.29688 20.8594 8.76562 21.6094 9.375C21.7031 9.42188 21.75 9.51562 21.75 9.60938V21.4688ZM20.25 12.7031L19.5 11.8125C19.3125 11.5781 18.9844 11.5312 18.7031 11.7656C17.3906 12.8438 15.9844 13.9688 15.4219 14.3906C14.5781 15.0938 13.0781 16.5 12 16.5C10.875 16.5 9.375 15.0469 8.53125 14.3906C7.96875 13.9688 6.5625 12.8438 5.25 11.7656C4.96875 11.5312 4.64062 11.5781 4.45312 11.8125L3.70312 12.7031C3.51562 12.9375 3.5625 13.3125 3.79688 13.5C5.15625 14.5781 6.60938 15.75 7.125 16.1719C8.15625 16.9688 9.9375 18.75 12 18.75C14.0156 18.75 15.75 17.0156 16.8281 16.1719C17.3438 15.7031 18.7969 14.5781 20.1562 13.5C20.3906 13.3125 20.4375 12.9375 20.25 12.7031Z" fill="currentColor"/>
</svg>
