<svg width="32" height="32" viewBox="0 0 32 32" fill="none" xmlns="http://www.w3.org/2000/svg">
<g clip-path="url(#clip0_10_12)">
<path d="M32 7.075C30.825 7.6 29.556 7.95 28.231 8.106C29.587 7.293 30.625 6.006 31.118 4.475C29.849 5.225 28.443 5.775 26.949 6.069C25.749 4.794 24.043 4 22.155 4C18.53 4 15.592 6.938 15.592 10.563C15.592 11.075 15.648 11.575 15.761 12.057C10.305 11.782 5.46702 9.169 2.23002 5.195C1.66702 6.164 1.34302 7.295 1.34302 8.495C1.34302 10.77 2.49902 12.782 4.26202 13.958C3.18702 13.927 2.17502 13.627 1.28702 13.139C1.28702 13.164 1.28702 13.195 1.28702 13.22C1.28702 16.401 3.55002 19.058 6.55602 19.657C6.00602 19.807 5.42502 19.888 4.82502 19.888C4.40002 19.888 3.99402 19.844 3.58802 19.769C4.42602 22.375 6.85102 24.275 9.71902 24.332C7.46902 26.094 4.64402 27.145 1.56302 27.145C1.03202 27.145 0.513019 27.114 -0.00598145 27.051C2.90702 28.92 6.35602 30.001 10.063 30.001C22.138 30.001 28.744 19.995 28.744 11.32C28.744 11.033 28.738 10.751 28.725 10.47C30.006 9.551 31.119 8.395 32 7.076V7.075Z" fill="currentColor"/>
</g>
<defs>
<clipPath id="clip0_10_12">
<rect width="32" height="32" fill="white"/>
</clipPath>
</defs>
</svg>
